<svg width="260" height="260" viewBox="0 0 260 260" fill="none" xmlns="http://www.w3.org/2000/svg">
<path d="M260 130C260 201.797 201.797 260 130 260C58.203 260 0 201.797 0 130C0 58.203 58.203 0 130 0C201.797 0 260 58.203 260 130Z" fill="url(#paint0_linear_0_1)"/>
<path d="M213.621 41.552C214.645 42.2347 214.816 43.0027 214.133 43.856C207.306 53.4133 200.138 69.5413 192.629 92.24C192.288 93.264 191.776 94.7147 191.093 96.592C188.704 103.589 186.912 109.051 185.717 112.976C184.522 116.731 182.901 122.107 180.853 129.104C178.805 135.931 177.269 141.819 176.245 146.768C175.392 151.717 174.538 157.264 173.685 163.408C172.832 169.552 172.405 175.44 172.405 181.072C172.576 186.704 173.173 192.08 174.197 197.2C174.709 199.589 176.16 202.32 178.549 205.392C180.085 207.099 179.402 208.464 176.501 209.488C173.6 210.341 171.04 210.768 168.821 210.768C165.066 210.768 161.909 210.085 159.349 208.72C156.96 207.184 155.082 205.136 153.717 202.576C152.522 199.845 151.584 197.115 150.901 194.384C150.389 191.653 150.048 188.411 149.877 184.656C149.365 172.539 151.072 155.984 154.997 134.992C155.338 133.627 155.338 132.773 154.997 132.432C154.656 131.92 153.802 131.493 152.437 131.152C146.634 129.957 140.746 130.811 134.773 133.712C129.312 136.272 127.264 140.027 128.629 144.976C128.97 146.512 129.482 147.963 130.165 149.328C128.288 148.304 126.752 146.512 125.557 143.952C124.704 142.416 124.021 140.368 123.509 137.808C123.509 137.296 122.997 137.808 121.973 139.344C121.973 139.515 121.888 139.685 121.717 139.856C106.186 167.675 97.8237 182.523 96.629 184.4C89.461 196.688 81.4397 204.709 72.565 208.464C68.6397 210.171 64.2877 210.597 59.509 209.744C54.7303 208.72 50.8903 206.587 47.989 203.344C45.429 200.272 43.893 196.859 43.381 193.104C43.0397 189.349 44.2343 185.936 46.965 182.864C49.013 180.987 51.317 180.304 53.877 180.816C56.437 181.157 58.3997 182.523 59.765 184.912C62.1543 189.008 61.8983 193.189 58.997 197.456C58.8263 197.797 58.485 198.309 57.973 198.992C57.461 199.504 57.1197 199.845 56.949 200.016C56.7783 200.187 56.7783 200.443 56.949 200.784C57.1197 201.125 57.2903 201.296 57.461 201.296C63.7757 201.979 69.493 198.651 74.613 191.312C78.3677 185.851 82.293 179.792 86.389 173.136C90.6557 166.309 94.069 160.592 96.629 155.984C99.3597 151.376 103.114 144.891 107.893 136.528C112.672 127.995 116 121.936 117.877 118.352C118.901 116.645 120.522 113.829 122.741 109.904C124.96 105.979 126.666 102.992 127.861 100.944C129.056 98.896 130.677 96.1653 132.725 92.752C134.773 89.168 136.565 86.1813 138.101 83.792C139.637 81.4027 141.429 78.7573 143.477 75.856C145.525 72.784 147.488 69.968 149.365 67.408C151.413 64.6773 153.461 62.032 155.509 59.472C171.381 40.3573 187.594 33.0187 204.149 37.456C207.562 38.3093 210.72 39.6747 213.621 41.552ZM51.829 184.656C51.829 184.315 51.7437 184.059 51.573 183.888C51.573 183.717 51.4023 183.632 51.061 183.632C50.549 183.803 49.9517 184.144 49.269 184.656C48.5863 184.997 47.989 185.509 47.477 186.192C47.1357 186.704 46.8797 187.301 46.709 187.984C46.709 187.984 46.965 188.155 47.477 188.496C47.6477 188.496 47.989 188.325 48.501 187.984C49.1837 187.472 49.6103 187.131 49.781 186.96C50.1223 186.789 50.4637 186.533 50.805 186.192C51.317 185.68 51.6583 185.168 51.829 184.656ZM62.581 209.488C63.093 209.488 63.349 209.403 63.349 209.232C63.349 208.891 63.0077 208.72 62.325 208.72C62.325 208.72 62.2397 208.805 62.069 208.976C61.8983 208.976 61.7277 209.061 61.557 209.232C62.2397 209.403 62.581 209.488 62.581 209.488ZM194.677 49.232C194.506 49.4027 194.421 49.488 194.421 49.488C194.421 49.488 194.506 49.6587 194.677 50C194.848 50 194.933 50 194.933 50C194.933 49.8293 194.933 49.744 194.933 49.744C194.933 49.5733 194.848 49.4027 194.677 49.232ZM191.093 41.808C188.021 47.2693 185.205 53.1573 182.645 59.472C175.306 77.392 169.76 93.264 166.005 107.088C162.421 120.229 159.946 131.067 158.581 139.6C159.093 139.259 159.349 139.088 159.349 139.088C159.69 138.064 160.032 136.528 160.373 134.48C160.885 132.261 161.226 130.555 161.397 129.36C163.616 119.973 165.834 111.696 168.053 104.528C172.49 90.0213 178.293 74.2347 185.461 57.168C185.632 56.8267 186.144 55.5467 186.997 53.328C188.021 50.9387 188.704 49.3173 189.045 48.464C189.557 47.6107 190.24 46.416 191.093 44.88C191.946 43.1733 192.8 41.808 193.653 40.784C193.994 40.4427 193.994 40.1867 193.653 40.016C193.312 39.8453 193.056 39.76 192.885 39.76C192.373 40.1013 191.776 40.784 191.093 41.808ZM189.045 62.8C189.216 62.4587 189.301 62.288 189.301 62.288C189.472 62.1173 189.472 62.032 189.301 62.032C189.301 61.8613 189.301 61.776 189.301 61.776C189.13 61.776 188.96 61.8613 188.789 62.032C188.789 62.032 188.789 62.1173 188.789 62.288C188.789 62.4587 188.874 62.6293 189.045 62.8ZM134.005 122.192C135.541 122.021 136.65 121.936 137.333 121.936C138.357 121.595 141.429 120.997 146.549 120.144C143.989 119.632 141.088 119.803 137.845 120.656C137.674 120.827 137.589 121.083 137.589 121.424L137.333 121.936C136.309 121.424 135.2 121.509 134.005 122.192ZM141.173 129.104C141.514 129.104 141.941 129.104 142.453 129.104C143.136 129.104 143.648 129.104 143.989 129.104C142.794 128.592 141.856 128.592 141.173 129.104ZM139.125 124.496C139.296 124.496 140.405 124.411 142.453 124.24C144.501 124.069 146.037 123.899 147.061 123.728C144.672 123.216 143.05 123.045 142.197 123.216C141.514 123.216 140.49 123.643 139.125 124.496ZM148.341 118.608C151.242 118.779 153.973 119.376 156.533 120.4C157.728 120.741 158.496 120.315 158.837 119.12C159.008 118.437 159.178 117.669 159.349 116.816C164.81 96.848 171.978 76.9653 180.853 57.168C181.194 56.144 181.621 55.0347 182.133 53.84C182.645 52.4747 182.218 51.9627 180.853 52.304L176.501 54.608C171.04 59.216 166.09 64.5067 161.653 70.48C153.461 81.4027 143.818 97.616 132.725 119.12C132.213 120.485 132.213 121.168 132.725 121.168C137.333 119.12 142.538 118.267 148.341 118.608ZM157.557 151.632C155.68 154.533 155.082 158.544 155.765 163.664C155.936 161.616 156.021 160.507 156.021 160.336C156.192 159.653 156.277 158.715 156.277 157.52C156.448 156.325 156.618 155.301 156.789 154.448C156.96 153.424 157.216 152.485 157.557 151.632ZM156.533 201.04C157.045 200.187 157.13 198.992 156.789 197.456C155.253 190.629 154.656 182.267 154.997 172.368C154.997 172.197 154.997 170.064 154.997 165.968C154.826 166.48 154.656 167.845 154.485 170.064C153.973 178.256 153.717 182.949 153.717 184.144C153.888 191.653 154.826 197.285 156.533 201.04ZM157.557 151.632C157.557 148.731 157.728 146.512 158.069 144.976C157.557 145.488 157.301 146.085 157.301 146.768C157.301 147.109 157.386 148.731 157.557 151.632ZM158.069 144.72C158.922 143.013 159.093 141.477 158.581 140.112C157.728 141.819 157.557 143.355 158.069 144.72ZM169.845 196.432L170.101 196.176L169.845 196.432ZM169.845 196.176C170.186 195.323 170.272 194.213 170.101 192.848C169.589 189.605 169.333 184.229 169.333 176.72C169.333 176.72 169.248 176.293 169.077 175.44C169.077 176.123 168.992 177.573 168.821 179.792C168.65 181.84 168.565 183.291 168.565 184.144C168.565 184.997 168.565 186.277 168.565 187.984C168.565 189.52 168.65 190.971 168.821 192.336C168.992 193.701 169.333 194.981 169.845 196.176ZM176.245 135.504C176.245 135.333 176.245 135.248 176.245 135.248C175.904 134.907 175.733 134.992 175.733 135.504C175.733 135.504 175.818 135.589 175.989 135.76C176.16 135.589 176.245 135.504 176.245 135.504ZM163.445 150.352C166.176 134.48 170.528 117.84 176.501 100.432C177.866 95.9947 179.914 89.68 182.645 81.488C185.546 73.1253 187.68 66.9813 189.045 63.056C188.362 63.2267 187.68 64.08 186.997 65.616C182.73 76.368 180.085 82.9387 179.061 85.328C173.258 101.541 168.309 119.973 164.213 140.624C161.312 155.131 159.605 168.528 159.093 180.816C158.922 186.789 159.434 191.568 160.629 195.152C160.97 196.176 161.482 196.688 162.165 196.688C161.994 195.323 161.909 194.555 161.909 194.384C161.056 187.045 160.629 181.584 160.629 178C160.629 169.808 161.568 160.592 163.445 150.352ZM177.013 131.664C177.184 131.152 177.269 130.896 177.269 130.896C177.269 130.725 177.184 130.469 177.013 130.128C176.842 130.469 176.757 130.725 176.757 130.896C176.757 130.896 176.842 131.152 177.013 131.664ZM177.269 129.872C178.122 129.019 178.293 127.824 177.781 126.288C177.61 127.653 177.44 128.848 177.269 129.872ZM195.189 74.32C195.701 72.9547 195.786 71.6747 195.445 70.48C195.104 71.6747 194.933 72.4427 194.933 72.784C188.789 87.9733 183.84 102.992 180.085 117.84C179.914 118.693 179.573 120.059 179.061 121.936C178.549 123.813 178.122 125.179 177.781 126.032C178.464 125.861 178.805 125.691 178.805 125.52C178.976 125.179 179.317 124.069 179.829 122.192C184.608 107.344 187.253 99.2373 187.765 97.872C191.52 85.7547 193.994 77.904 195.189 74.32ZM195.445 70.48C195.616 70.3093 195.616 70.224 195.445 70.224C195.445 70.3947 195.445 70.48 195.445 70.48ZM198.005 45.648C198.517 44.624 198.517 44.0267 198.005 43.856C197.834 43.6853 197.493 44.0267 196.981 44.88C196.469 45.7333 195.701 47.0987 194.677 48.976C195.189 49.1467 195.616 48.976 195.957 48.464C196.128 48.2933 196.384 47.8667 196.725 47.184C197.237 46.5013 197.664 45.9893 198.005 45.648ZM203.637 52.816C203.466 52.9867 203.466 53.1573 203.637 53.328C203.637 53.1573 203.637 52.9867 203.637 52.816ZM203.637 52.56C204.32 52.56 204.661 52.1333 204.661 51.28C204.32 51.28 203.978 51.7067 203.637 52.56ZM204.661 51.024C205.344 50.6827 205.514 49.9147 205.173 48.72C205.002 49.4027 204.832 50.1707 204.661 51.024ZM205.173 48.72C205.514 49.0613 205.77 49.1467 205.941 48.976C205.77 48.976 205.514 48.8907 205.173 48.72Z" fill="white"/>
<defs>
<linearGradient id="paint0_linear_0_1" x1="9" y1="76" x2="252" y2="188" gradientUnits="userSpaceOnUse">
<stop stop-color="#36B49F"/>
<stop offset="1" stop-color="#DBFF75"/>
</linearGradient>
</defs>
</svg>
