<svg width="787" height="184" viewBox="0 0 787 184" fill="none" xmlns="http://www.w3.org/2000/svg">
<path d="M171.621 11.552C172.645 12.2347 172.816 13.0027 172.133 13.856C165.306 23.4133 158.138 39.5413 150.629 62.24C150.288 63.264 149.776 64.7147 149.093 66.592C146.704 73.5893 144.912 79.0507 143.717 82.976C142.522 86.7307 140.901 92.1067 138.853 99.104C136.805 105.931 135.269 111.819 134.245 116.768C133.392 121.717 132.538 127.264 131.685 133.408C130.832 139.552 130.405 145.44 130.405 151.072C130.576 156.704 131.173 162.08 132.197 167.2C132.709 169.589 134.16 172.32 136.549 175.392C138.085 177.099 137.402 178.464 134.501 179.488C131.6 180.341 129.04 180.768 126.821 180.768C123.066 180.768 119.909 180.085 117.349 178.72C114.96 177.184 113.082 175.136 111.717 172.576C110.522 169.845 109.584 167.115 108.901 164.384C108.389 161.653 108.048 158.411 107.877 154.656C107.365 142.539 109.072 125.984 112.997 104.992C113.338 103.627 113.338 102.773 112.997 102.432C112.656 101.92 111.802 101.493 110.437 101.152C104.634 99.9573 98.7463 100.811 92.773 103.712C87.3117 106.272 85.2637 110.027 86.629 114.976C86.9703 116.512 87.4823 117.963 88.165 119.328C86.2877 118.304 84.7517 116.512 83.557 113.952C82.7037 112.416 82.021 110.368 81.509 107.808C81.509 107.296 80.997 107.808 79.973 109.344C79.973 109.515 79.8877 109.685 79.717 109.856C64.1863 137.675 55.8237 152.523 54.629 154.4C47.461 166.688 39.4397 174.709 30.565 178.464C26.6397 180.171 22.2877 180.597 17.509 179.744C12.7303 178.72 8.89033 176.587 5.989 173.344C3.429 170.272 1.893 166.859 1.381 163.104C1.03967 159.349 2.23433 155.936 4.965 152.864C7.013 150.987 9.317 150.304 11.877 150.816C14.437 151.157 16.3997 152.523 17.765 154.912C20.1543 159.008 19.8983 163.189 16.997 167.456C16.8263 167.797 16.485 168.309 15.973 168.992C15.461 169.504 15.1197 169.845 14.949 170.016C14.7783 170.187 14.7783 170.443 14.949 170.784C15.1197 171.125 15.2903 171.296 15.461 171.296C21.7757 171.979 27.493 168.651 32.613 161.312C36.3677 155.851 40.293 149.792 44.389 143.136C48.6557 136.309 52.069 130.592 54.629 125.984C57.3597 121.376 61.1143 114.891 65.893 106.528C70.6717 97.9947 73.9997 91.936 75.877 88.352C76.901 86.6453 78.5223 83.8293 80.741 79.904C82.9597 75.9787 84.6663 72.992 85.861 70.944C87.0557 68.896 88.677 66.1653 90.725 62.752C92.773 59.168 94.565 56.1813 96.101 53.792C97.637 51.4027 99.429 48.7573 101.477 45.856C103.525 42.784 105.488 39.968 107.365 37.408C109.413 34.6773 111.461 32.032 113.509 29.472C129.381 10.3573 145.594 3.01866 162.149 7.45599C165.562 8.30933 168.72 9.67466 171.621 11.552ZM9.829 154.656C9.829 154.315 9.74367 154.059 9.573 153.888C9.573 153.717 9.40233 153.632 9.061 153.632C8.549 153.803 7.95167 154.144 7.269 154.656C6.58633 154.997 5.989 155.509 5.477 156.192C5.13567 156.704 4.87967 157.301 4.709 157.984C4.709 157.984 4.965 158.155 5.477 158.496C5.64767 158.496 5.989 158.325 6.501 157.984C7.18367 157.472 7.61033 157.131 7.781 156.96C8.12233 156.789 8.46367 156.533 8.805 156.192C9.317 155.68 9.65833 155.168 9.829 154.656ZM20.581 179.488C21.093 179.488 21.349 179.403 21.349 179.232C21.349 178.891 21.0077 178.72 20.325 178.72C20.325 178.72 20.2397 178.805 20.069 178.976C19.8983 178.976 19.7277 179.061 19.557 179.232C20.2397 179.403 20.581 179.488 20.581 179.488ZM152.677 19.232C152.506 19.4027 152.421 19.488 152.421 19.488C152.421 19.488 152.506 19.6587 152.677 20C152.848 20 152.933 20 152.933 20C152.933 19.8293 152.933 19.744 152.933 19.744C152.933 19.5733 152.848 19.4027 152.677 19.232ZM149.093 11.808C146.021 17.2693 143.205 23.1573 140.645 29.472C133.306 47.392 127.76 63.264 124.005 77.088C120.421 90.2293 117.946 101.067 116.581 109.6C117.093 109.259 117.349 109.088 117.349 109.088C117.69 108.064 118.032 106.528 118.373 104.48C118.885 102.261 119.226 100.555 119.397 99.36C121.616 89.9733 123.834 81.696 126.053 74.528C130.49 60.0213 136.293 44.2347 143.461 27.168C143.632 26.8267 144.144 25.5467 144.997 23.328C146.021 20.9387 146.704 19.3173 147.045 18.464C147.557 17.6107 148.24 16.416 149.093 14.88C149.946 13.1733 150.8 11.808 151.653 10.784C151.994 10.4427 151.994 10.1867 151.653 10.016C151.312 9.84533 151.056 9.75999 150.885 9.75999C150.373 10.1013 149.776 10.784 149.093 11.808ZM147.045 32.8C147.216 32.4587 147.301 32.288 147.301 32.288C147.472 32.1173 147.472 32.032 147.301 32.032C147.301 31.8613 147.301 31.776 147.301 31.776C147.13 31.776 146.96 31.8613 146.789 32.032C146.789 32.032 146.789 32.1173 146.789 32.288C146.789 32.4587 146.874 32.6293 147.045 32.8ZM92.005 92.192C93.541 92.0213 94.6503 91.936 95.333 91.936C96.357 91.5947 99.429 90.9973 104.549 90.144C101.989 89.632 99.0877 89.8027 95.845 90.656C95.6743 90.8267 95.589 91.0827 95.589 91.424L95.333 91.936C94.309 91.424 93.1997 91.5093 92.005 92.192ZM99.173 99.104C99.5143 99.104 99.941 99.104 100.453 99.104C101.136 99.104 101.648 99.104 101.989 99.104C100.794 98.592 99.8557 98.592 99.173 99.104ZM97.125 94.496C97.2957 94.496 98.405 94.4107 100.453 94.24C102.501 94.0693 104.037 93.8987 105.061 93.728C102.672 93.216 101.05 93.0453 100.197 93.216C99.5143 93.216 98.4903 93.6427 97.125 94.496ZM106.341 88.608C109.242 88.7787 111.973 89.376 114.533 90.4C115.728 90.7413 116.496 90.3147 116.837 89.12C117.008 88.4373 117.178 87.6693 117.349 86.816C122.81 66.848 129.978 46.9653 138.853 27.168C139.194 26.144 139.621 25.0347 140.133 23.84C140.645 22.4747 140.218 21.9627 138.853 22.304L134.501 24.608C129.04 29.216 124.09 34.5067 119.653 40.48C111.461 51.4027 101.818 67.616 90.725 89.12C90.213 90.4853 90.213 91.168 90.725 91.168C95.333 89.12 100.538 88.2667 106.341 88.608ZM115.557 121.632C113.68 124.533 113.082 128.544 113.765 133.664C113.936 131.616 114.021 130.507 114.021 130.336C114.192 129.653 114.277 128.715 114.277 127.52C114.448 126.325 114.618 125.301 114.789 124.448C114.96 123.424 115.216 122.485 115.557 121.632ZM114.533 171.04C115.045 170.187 115.13 168.992 114.789 167.456C113.253 160.629 112.656 152.267 112.997 142.368C112.997 142.197 112.997 140.064 112.997 135.968C112.826 136.48 112.656 137.845 112.485 140.064C111.973 148.256 111.717 152.949 111.717 154.144C111.888 161.653 112.826 167.285 114.533 171.04ZM115.557 121.632C115.557 118.731 115.728 116.512 116.069 114.976C115.557 115.488 115.301 116.085 115.301 116.768C115.301 117.109 115.386 118.731 115.557 121.632ZM116.069 114.72C116.922 113.013 117.093 111.477 116.581 110.112C115.728 111.819 115.557 113.355 116.069 114.72ZM127.845 166.432L128.101 166.176L127.845 166.432ZM127.845 166.176C128.186 165.323 128.272 164.213 128.101 162.848C127.589 159.605 127.333 154.229 127.333 146.72C127.333 146.72 127.248 146.293 127.077 145.44C127.077 146.123 126.992 147.573 126.821 149.792C126.65 151.84 126.565 153.291 126.565 154.144C126.565 154.997 126.565 156.277 126.565 157.984C126.565 159.52 126.65 160.971 126.821 162.336C126.992 163.701 127.333 164.981 127.845 166.176ZM134.245 105.504C134.245 105.333 134.245 105.248 134.245 105.248C133.904 104.907 133.733 104.992 133.733 105.504C133.733 105.504 133.818 105.589 133.989 105.76C134.16 105.589 134.245 105.504 134.245 105.504ZM121.445 120.352C124.176 104.48 128.528 87.84 134.501 70.432C135.866 65.9947 137.914 59.68 140.645 51.488C143.546 43.1253 145.68 36.9813 147.045 33.056C146.362 33.2267 145.68 34.08 144.997 35.616C140.73 46.368 138.085 52.9387 137.061 55.328C131.258 71.5413 126.309 89.9733 122.213 110.624C119.312 125.131 117.605 138.528 117.093 150.816C116.922 156.789 117.434 161.568 118.629 165.152C118.97 166.176 119.482 166.688 120.165 166.688C119.994 165.323 119.909 164.555 119.909 164.384C119.056 157.045 118.629 151.584 118.629 148C118.629 139.808 119.568 130.592 121.445 120.352ZM135.013 101.664C135.184 101.152 135.269 100.896 135.269 100.896C135.269 100.725 135.184 100.469 135.013 100.128C134.842 100.469 134.757 100.725 134.757 100.896C134.757 100.896 134.842 101.152 135.013 101.664ZM135.269 99.872C136.122 99.0187 136.293 97.824 135.781 96.288C135.61 97.6533 135.44 98.848 135.269 99.872ZM153.189 44.32C153.701 42.9547 153.786 41.6747 153.445 40.48C153.104 41.6747 152.933 42.4427 152.933 42.784C146.789 57.9733 141.84 72.992 138.085 87.84C137.914 88.6933 137.573 90.0587 137.061 91.936C136.549 93.8133 136.122 95.1787 135.781 96.032C136.464 95.8613 136.805 95.6907 136.805 95.52C136.976 95.1787 137.317 94.0693 137.829 92.192C142.608 77.344 145.253 69.2373 145.765 67.872C149.52 55.7547 151.994 47.904 153.189 44.32ZM153.445 40.48C153.616 40.3093 153.616 40.224 153.445 40.224C153.445 40.3947 153.445 40.48 153.445 40.48ZM156.005 15.648C156.517 14.624 156.517 14.0267 156.005 13.856C155.834 13.6853 155.493 14.0267 154.981 14.88C154.469 15.7333 153.701 17.0987 152.677 18.976C153.189 19.1467 153.616 18.976 153.957 18.464C154.128 18.2933 154.384 17.8667 154.725 17.184C155.237 16.5013 155.664 15.9893 156.005 15.648ZM161.637 22.816C161.466 22.9867 161.466 23.1573 161.637 23.328C161.637 23.1573 161.637 22.9867 161.637 22.816ZM161.637 22.56C162.32 22.56 162.661 22.1333 162.661 21.28C162.32 21.28 161.978 21.7067 161.637 22.56ZM162.661 21.024C163.344 20.6827 163.514 19.9147 163.173 18.72C163.002 19.4027 162.832 20.1707 162.661 21.024ZM163.173 18.72C163.514 19.0613 163.77 19.1467 163.941 18.976C163.77 18.976 163.514 18.8907 163.173 18.72ZM221.899 114.464C221.899 114.976 221.899 115.403 221.899 115.744C221.046 117.451 219.936 119.925 218.571 123.168C217.206 126.411 216.011 129.056 214.987 131.104C214.134 133.152 213.024 135.541 211.659 138.272C210.464 141.003 209.184 143.648 207.819 146.208C206.624 148.597 205.344 150.901 203.979 153.12C196.811 165.237 190.24 173.259 184.267 177.184C178.294 181.109 172.918 181.195 168.139 177.44C163.36 173.515 160.203 168.139 158.667 161.312C155.254 147.488 155.936 129.227 160.715 106.528C162.251 98.6773 164.47 90.144 167.371 80.928C167.883 78.5387 167.798 77.344 167.115 77.344C164.214 77.6853 161.654 78.368 159.435 79.392C157.387 80.2453 155.68 81.7813 154.315 84C154.315 84 154.23 84.0853 154.059 84.256C153.888 84.4267 153.803 84.512 153.803 84.512C153.632 84.8533 153.376 85.024 153.035 85.024C152.694 84.8533 152.523 84.5973 152.523 84.256C151.67 79.648 152.694 75.296 155.595 71.2C158.326 66.9333 161.91 64.2027 166.347 63.008C167.542 62.8373 169.419 62.5813 171.979 62.24C173.174 62.0693 173.942 61.472 174.283 60.448C181.451 42.528 185.888 31.264 187.595 26.656C188.107 25.2907 188.79 24.1813 189.643 23.328C190.496 22.4747 191.606 21.792 192.971 21.28C194.336 20.768 195.531 20.3413 196.555 20C197.579 19.6587 199.03 19.488 200.907 19.488C202.955 19.3173 204.32 19.232 205.003 19.232C205.686 19.232 207.136 19.3173 209.355 19.488C211.574 19.6587 212.768 19.744 212.939 19.744C214.304 19.744 215.499 20.1707 216.523 21.024C217.547 21.8773 217.888 22.9013 217.547 24.096C217.376 24.9493 217.035 26.0587 216.523 27.424C215.499 29.8133 213.792 33.9093 211.403 39.712C209.014 45.344 207.222 49.696 206.027 52.768C205.174 54.6453 204.064 57.376 202.699 60.96C202.358 61.984 202.699 62.496 203.723 62.496C208.502 62.496 212.512 61.8987 215.755 60.704C216.267 60.5333 217.12 59.936 218.315 58.912C219.339 58.2293 219.936 57.9733 220.107 58.144C220.448 58.3147 220.619 58.9973 220.619 60.192C220.278 66.336 217.547 71.3707 212.427 75.296C209.696 77.1733 205.174 78.1973 198.859 78.368C197.152 78.368 196.043 79.136 195.531 80.672C190.923 94.8373 187.68 106.101 185.803 114.464C183.243 126.581 181.963 139.467 181.963 153.12C182.134 159.947 182.987 163.189 184.523 162.848C186.23 162.507 189.131 158.752 193.227 151.584C200.907 138.443 206.88 125.728 211.147 113.44C212.342 110.027 213.366 108.235 214.219 108.064C214.56 108.064 215.584 108.405 217.291 109.088C218.315 109.429 218.571 110.112 218.059 111.136C218.571 111.307 218.998 111.563 219.339 111.904C219.68 112.245 220.022 112.757 220.363 113.44C220.704 114.123 220.875 114.549 220.875 114.72C221.046 114.379 221.131 114.208 221.131 114.208C221.302 114.037 221.472 114.037 221.643 114.208C221.814 114.208 221.899 114.293 221.899 114.464ZM211.147 64.288C210.976 64.288 210.72 64.288 210.379 64.288C210.55 64.288 210.806 64.288 211.147 64.288ZM210.123 64.544C209.782 64.544 209.27 64.6293 208.587 64.8C207.904 64.9707 207.307 65.056 206.795 65.056C208.672 65.568 209.782 65.3973 210.123 64.544ZM207.051 68.384C206.539 68.384 206.283 68.384 206.283 68.384C206.283 68.384 206.112 68.5547 205.771 68.896C206.112 69.0667 206.368 69.152 206.539 69.152C206.71 69.152 206.966 69.152 207.307 69.152C207.819 68.9813 208.075 68.8107 208.075 68.64C207.904 68.4693 207.563 68.384 207.051 68.384ZM205.515 74.528C205.344 74.528 205.088 74.6133 204.747 74.784C205.088 75.1253 205.344 75.296 205.515 75.296C206.027 75.296 206.283 75.1253 206.283 74.784C206.283 74.784 206.027 74.6987 205.515 74.528ZM165.323 66.592C163.616 66.592 161.91 67.36 160.203 68.896C161.568 68.7253 163.275 67.9573 165.323 66.592ZM160.203 68.896V69.152V68.896ZM161.739 71.712H161.483H161.739ZM161.739 71.712C162.934 71.5413 163.616 71.2853 163.787 70.944C163.275 70.7733 162.592 71.0293 161.739 71.712ZM165.067 70.688C165.408 70.688 165.494 70.5173 165.323 70.176C165.152 70.176 165.067 70.176 165.067 70.176C164.214 70.176 163.787 70.432 163.787 70.944C164.47 70.7733 164.896 70.688 165.067 70.688ZM195.787 65.568C196.982 63.52 197.494 61.8133 197.323 60.448C195.787 61.8133 195.275 63.52 195.787 65.568ZM197.323 60.192C197.835 60.0213 198.091 59.424 198.091 58.4C197.408 58.7413 197.152 59.3387 197.323 60.192ZM198.347 58.144C198.518 57.9733 198.688 57.7173 198.859 57.376C199.03 56.864 199.2 56.5227 199.371 56.352C199.371 56.1813 199.371 55.84 199.371 55.328C199.371 55.4987 199.371 55.7547 199.371 56.096C199.371 56.2667 199.371 56.352 199.371 56.352C198.688 56.6933 198.347 57.2907 198.347 58.144ZM200.395 53.28C200.395 53.28 200.395 53.1947 200.395 53.024C200.395 53.024 200.31 53.1093 200.139 53.28C199.968 53.28 199.883 53.28 199.883 53.28C200.054 53.28 200.224 53.28 200.395 53.28ZM161.483 158.752L161.739 158.496L161.483 158.752ZM164.555 116.512C167.115 100.64 171.296 84 177.099 66.592C180.683 55.84 185.547 43.04 191.691 28.192C191.862 27.68 192.032 26.8267 192.203 25.632C192.374 25.632 192.203 25.4613 191.691 25.12C191.691 25.12 191.606 25.12 191.435 25.12C191.435 25.12 191.435 25.2053 191.435 25.376C190.923 26.0587 190.582 26.5707 190.411 26.912C189.387 29.6427 187.424 34.5067 184.523 41.504C181.622 48.3307 179.488 53.6213 178.123 57.376C169.419 80.928 163.531 104.907 160.459 129.312C159.094 141.259 159.435 150.987 161.483 158.496C161.824 157.984 161.995 156.619 161.995 154.4C161.654 147.061 161.568 142.539 161.739 140.832C162.08 133.152 163.019 125.045 164.555 116.512ZM170.443 121.888C172.662 107.893 176.246 92.8747 181.195 76.832C184.267 66.4213 186.742 58.912 188.619 54.304C189.984 51.232 191.947 46.4533 194.507 39.968C197.238 33.4827 199.286 28.6187 200.651 25.376C201.334 23.6693 201.504 22.56 201.163 22.048C200.822 22.048 200.48 22.1333 200.139 22.304C199.798 22.4747 199.542 22.7307 199.371 23.072C199.371 23.2427 199.286 23.584 199.115 24.096C199.115 24.4373 199.115 24.6933 199.115 24.864C191.435 43.6373 186.742 55.328 185.035 59.936C175.99 84 170.187 105.845 167.627 125.472C166.774 133.152 166.432 139.467 166.603 144.416C166.603 147.147 166.944 149.109 167.627 150.304C168.139 141.259 168.48 136.48 168.651 135.968C168.992 132.384 169.59 127.691 170.443 121.888ZM178.123 142.112C178.976 132.213 180.256 123.253 181.963 115.232C183.84 106.016 188.107 90.7413 194.763 69.408C195.446 67.36 195.702 66.1653 195.531 65.824C195.19 65.824 194.934 65.9947 194.763 66.336C193.739 68.7253 193.142 70.0907 192.971 70.432C187.168 87.328 183.158 100.981 180.939 111.392C178.038 124.875 176.758 136.992 177.099 147.744C177.099 149.109 177.184 149.963 177.355 150.304C177.696 149.963 177.867 149.28 177.867 148.256C177.867 147.403 177.867 146.72 177.867 146.208C177.867 145.525 177.867 144.843 177.867 144.16C178.038 143.307 178.123 142.624 178.123 142.112ZM218.315 111.648C218.315 111.648 218.4 111.648 218.571 111.648C218.4 111.477 218.315 111.392 218.315 111.392C218.315 111.392 218.23 111.392 218.059 111.392C218.23 111.392 218.315 111.477 218.315 111.648ZM220.875 114.72C220.534 114.549 220.278 114.464 220.107 114.464C220.448 114.635 220.704 114.72 220.875 114.72ZM273.149 113.952C273.661 113.781 273.917 113.952 273.917 114.464C273.917 114.805 273.832 115.232 273.661 115.744C267.517 129.568 263.933 137.589 262.909 139.808C255.4 156.192 248.317 167.541 241.661 173.856C236.541 178.464 231.762 180.512 227.325 180C223.058 179.488 219.389 177.269 216.317 173.344C213.245 169.419 211.112 164.64 209.917 159.008C209.064 154.229 208.552 148.768 208.381 142.624C208.722 109.685 219.901 69.92 241.917 23.328C242.77 21.4507 243.88 19.232 245.245 16.672C247.122 12.9173 252.328 11.296 260.861 11.808C268.882 12.1493 273.32 14.0267 274.173 17.44C274.173 18.6347 273.917 19.744 273.405 20.768C263.506 36.4693 255.144 54.9867 248.317 76.32C240.466 100.213 235.773 119.584 234.237 134.432C233.213 142.965 233.213 150.731 234.237 157.728C234.92 163.36 236.712 164.213 239.613 160.288C240.978 158.411 242.344 156.448 243.709 154.4C245.074 152.181 246.44 149.792 247.805 147.232C249.17 144.501 250.28 142.283 251.133 140.576C252.157 138.869 253.352 136.48 254.717 133.408C256.082 130.165 257.021 127.861 257.533 126.496C258.216 125.131 259.24 122.656 260.605 119.072C262.141 115.317 263.165 112.928 263.677 111.904C264.36 110.027 265.128 108.832 265.981 108.32C267.005 107.808 268.114 108.064 269.309 109.088C269.48 109.088 269.65 109.344 269.821 109.856C269.992 110.368 270.162 110.795 270.333 111.136C270.504 111.477 270.674 111.648 270.845 111.648C271.528 111.648 271.869 111.819 271.869 112.16C272.04 112.331 272.04 112.672 271.869 113.184C271.698 113.696 271.698 114.037 271.869 114.208C272.04 114.208 272.296 114.123 272.637 113.952C272.808 113.952 272.978 113.952 273.149 113.952ZM250.621 57.632C250.792 57.2907 250.792 57.12 250.621 57.12C250.621 57.2907 250.621 57.4613 250.621 57.632ZM254.205 20.768C254.034 21.1093 253.181 22.9013 251.645 26.144C251.816 26.3147 252.072 26.4853 252.413 26.656C255.485 21.8773 257.874 18.3787 259.581 16.16C259.581 15.9893 259.581 15.8187 259.581 15.648C259.752 15.136 259.581 14.7947 259.069 14.624C257.704 14.112 256.85 14.4533 256.509 15.648C256.338 16.16 255.57 17.8667 254.205 20.768ZM214.013 154.656C213.16 148.341 213.416 139.381 214.781 127.776C215.976 116.341 218.621 103.029 222.717 87.84C226.13 74.3573 231.165 59.3387 237.821 42.784C242.088 32.032 246.184 23.584 250.109 17.44C250.109 17.2693 250.45 16.5867 251.133 15.392C249.938 14.7093 248.914 14.7947 248.061 15.648C247.72 16.3307 247.293 17.0987 246.781 17.952C241.149 30.4107 237.906 37.664 237.053 39.712C227.666 61.3867 220.669 83.6587 216.061 106.528C214.184 116.256 212.733 126.069 211.709 135.968C211.197 141.771 211.453 147.744 212.477 153.888C212.648 155.765 213.074 157.131 213.757 157.984C214.098 157.301 214.184 156.192 214.013 154.656ZM248.829 32.8V33.056V33.312V33.056C248.829 33.056 248.829 32.9707 248.829 32.8ZM246.269 38.432C246.269 38.6027 246.184 38.7733 246.013 38.944C246.184 38.7733 246.269 38.6027 246.269 38.432ZM243.197 45.088C243.88 44.9173 244.136 44.32 243.965 43.296C243.624 43.4667 243.368 44.064 243.197 45.088ZM244.733 42.784C244.733 42.784 244.648 42.784 244.477 42.784C244.477 42.6133 244.477 42.528 244.477 42.528C244.306 42.528 244.221 42.6987 244.221 43.04C244.392 42.8693 244.562 42.784 244.733 42.784ZM220.413 134.944C222.12 120.267 225.192 104.821 229.629 88.608C232.701 77.1733 236.968 63.776 242.429 48.416C243.112 46.88 243.368 45.856 243.197 45.344C242.856 45.5147 242.344 46.4533 241.661 48.16C238.589 55.328 235.858 62.496 233.469 69.664C225.448 92.8747 220.584 113.867 218.877 132.64C218.365 138.443 218.365 143.819 218.877 148.768C219.389 148.427 219.645 147.659 219.645 146.464C219.816 145.781 219.986 144.075 220.157 141.344C220.328 138.613 220.413 136.48 220.413 134.944ZM229.629 150.048C229.8 149.707 229.885 148.853 229.885 147.488C230.226 142.197 230.397 139.467 230.397 139.296C231.592 123.083 235.944 103.029 243.453 79.136C244.306 76.4053 245.586 72.5653 247.293 67.616C249 62.496 250.024 59.2533 250.365 57.888C249.853 58.2293 249.341 58.9973 248.829 60.192C248.488 60.8747 248.061 61.8987 247.549 63.264C247.208 64.6293 246.866 65.6533 246.525 66.336C240.04 83.232 235.261 99.2747 232.189 114.464C229.8 126.24 228.69 137.333 228.861 147.744C229.032 148.939 229.288 149.707 229.629 150.048ZM378.641 113.44C379.153 113.099 379.409 113.269 379.409 113.952C379.409 114.464 379.324 115.061 379.153 115.744C371.644 132.981 366.268 144.416 363.025 150.048C358.076 158.581 353.809 164.896 350.225 168.992C344.081 176.16 338.022 179.915 332.049 180.256C328.465 180.427 325.393 179.232 322.833 176.672C320.273 173.941 318.396 170.699 317.201 166.944C315.324 160.629 314.641 151.243 315.153 138.784C315.153 136.565 315.068 135.456 314.897 135.456C314.897 135.285 314.812 135.285 314.641 135.456C314.641 135.456 314.47 135.627 314.129 135.968C313.958 136.309 313.788 136.651 313.617 136.992C313.617 137.333 313.446 137.76 313.105 138.272C312.934 138.613 312.849 138.869 312.849 139.04C304.316 154.912 297.916 165.664 293.649 171.296C290.406 175.563 285.798 178.379 279.825 179.744C274.022 180.939 268.646 180.171 263.697 177.44C258.748 174.539 256.017 169.931 255.505 163.616C254.31 153.376 255.164 142.453 258.065 130.848C260.966 119.243 265.062 108.32 270.353 98.08C282.3 75.04 295.185 62.3253 309.009 59.936C313.446 59.2533 317.798 60.0213 322.065 62.24C326.502 64.4587 329.489 67.616 331.025 71.712C331.537 73.0773 331.366 74.016 330.513 74.528C330.001 74.528 329.574 74.6133 329.233 74.784C329.062 74.784 328.721 74.6133 328.209 74.272C327.868 73.9307 327.612 73.6747 327.441 73.504C327.27 73.3333 326.929 73.0773 326.417 72.736C326.076 72.3947 325.905 72.1387 325.905 71.968C322.833 68.896 318.396 70.7733 312.593 77.6C309.862 80.8427 306.449 85.7067 302.353 92.192C295.697 102.091 290.321 113.099 286.225 125.216C282.3 137.163 280.081 148.939 279.569 160.544C279.398 163.104 279.569 165.493 280.081 167.712C280.593 169.419 281.361 169.589 282.385 168.224C286.31 163.445 290.321 157.728 294.417 151.072C302.95 137.248 311.996 120.096 321.553 99.616C324.113 94.3253 328.806 84 335.633 68.64C336.828 66.08 337.937 64.032 338.961 62.496C341.18 59.424 344.422 57.5467 348.689 56.864C352.956 56.1813 356.71 56.5227 359.953 57.888C360.806 58.0587 361.489 58.3147 362.001 58.656C363.025 58.9973 363.281 59.68 362.769 60.704C362.428 61.3867 361.404 63.52 359.697 67.104C358.844 69.152 355.516 78.112 349.713 93.984C342.033 115.317 337.766 133.408 336.913 148.256C336.401 154.912 336.742 159.52 337.937 162.08C338.62 163.957 339.985 163.957 342.033 162.08C344.081 160.203 345.702 158.325 346.897 156.448C355.601 142.624 363.025 128.117 369.169 112.928C369.681 111.563 370.022 110.624 370.193 110.112C370.534 109.6 371.046 109.173 371.729 108.832C372.582 108.32 373.521 108.149 374.545 108.32C375.057 108.32 375.398 108.576 375.569 109.088C375.569 109.088 375.654 109.259 375.825 109.6C375.996 110.795 376.508 111.307 377.361 111.136C377.532 111.477 377.617 112.075 377.617 112.928C377.617 113.781 377.617 114.293 377.617 114.464C377.958 113.952 378.3 113.611 378.641 113.44ZM295.185 95.776C294.502 96.288 294.417 97.056 294.929 98.08C294.929 97.9093 294.929 97.568 294.929 97.056C295.1 96.544 295.185 96.1173 295.185 95.776ZM295.185 95.52C296.38 95.008 297.233 93.728 297.745 91.68C296.209 92.3627 295.356 93.6427 295.185 95.52ZM298.001 91.424C299.196 90.7413 299.708 89.888 299.537 88.864C298.342 89.2053 297.83 90.0587 298.001 91.424ZM303.121 84C303.121 84 303.036 83.6587 302.865 82.976C301.158 85.3653 300.305 86.6453 300.305 86.816C299.793 87.4987 299.622 88.096 299.793 88.608C300.817 88.096 301.926 86.56 303.121 84ZM302.865 82.976C303.377 83.3173 303.804 83.232 304.145 82.72C303.974 82.72 303.718 82.8053 303.377 82.976C303.206 82.976 303.036 82.976 302.865 82.976ZM304.401 82.464C305.766 81.44 306.534 80.3307 306.705 79.136C305.34 79.8187 304.572 80.928 304.401 82.464ZM312.849 72.48C313.19 72.48 313.617 72.3947 314.129 72.224C313.446 72.3947 313.02 72.48 312.849 72.48ZM312.593 72.48C312.252 73.1627 312.081 73.5893 312.081 73.76C312.764 73.5893 312.934 73.1627 312.593 72.48ZM311.825 73.76C309.948 74.6133 308.582 76.064 307.729 78.112C309.777 77.088 311.142 75.6373 311.825 73.76ZM307.473 78.112C306.961 78.112 306.705 78.368 306.705 78.88C307.388 79.0507 307.644 78.7947 307.473 78.112ZM296.721 69.92C296.38 70.432 296.209 70.7733 296.209 70.944C296.721 70.7733 296.892 70.432 296.721 69.92ZM296.209 71.2C295.526 71.2 295.27 71.456 295.441 71.968C295.782 71.7973 296.038 71.5413 296.209 71.2ZM261.137 171.04L261.393 170.784H261.137V171.04ZM260.625 159.264C260.454 153.12 261.137 146.549 262.673 139.552C266.428 120.779 273.254 103.712 283.153 88.352C284.689 85.792 288.7 80.416 295.185 72.224C294.844 72.0533 294.246 72.224 293.393 72.736C290.492 75.296 286.993 79.648 282.897 85.792C276.07 95.6907 270.694 106.272 266.769 117.536C261.82 131.36 259.345 143.648 259.345 154.4C259.345 155.595 259.43 156.96 259.601 158.496C259.601 158.667 259.772 159.861 260.113 162.08C260.454 161.397 260.625 160.459 260.625 159.264ZM266.769 175.904C267.11 176.075 267.366 175.989 267.537 175.648C267.366 175.307 267.281 175.136 267.281 175.136C267.281 174.965 267.025 174.965 266.513 175.136C266.684 175.648 266.769 175.904 266.769 175.904ZM267.537 145.44C269.926 131.787 274.449 117.963 281.105 103.968C287.249 91.168 294.844 80.416 303.889 71.712C304.742 71.0293 305.254 70.5173 305.425 70.176C305.425 70.176 305.425 69.8347 305.425 69.152C300.646 72.224 296.38 76.4053 292.625 81.696C288.188 87.6693 284.433 93.728 281.361 99.872C273.34 115.573 268.39 130.763 266.513 145.44C266.172 147.659 266.172 149.195 266.513 150.048C267.196 147.147 267.537 145.611 267.537 145.44ZM276.241 152.352C276.582 150.475 276.582 148.427 276.241 146.208C276.241 146.72 276.156 147.659 275.985 149.024C275.814 150.389 275.9 151.499 276.241 152.352ZM277.265 145.184C277.265 145.013 277.692 143.307 278.545 140.064C281.617 127.776 286.225 115.147 292.369 102.176C293.393 99.9573 294.246 98.6773 294.929 98.336C293.905 98.1653 293.137 98.592 292.625 99.616C287.164 110.027 282.982 120.181 280.081 130.08C278.716 134.517 277.777 138.272 277.265 141.344C276.924 144.245 276.582 145.867 276.241 146.208C276.924 145.696 277.265 145.355 277.265 145.184ZM346.385 92.448C346.044 92.448 345.958 92.5333 346.129 92.704C346.3 92.5333 346.385 92.448 346.385 92.448ZM346.641 91.936C347.324 91.424 347.494 90.656 347.153 89.632C346.641 89.9733 346.47 90.7413 346.641 91.936ZM357.649 62.752C357.137 64.288 357.137 65.4827 357.649 66.336C357.649 65.9947 357.99 64.9707 358.673 63.264C359.185 61.8987 359.441 61.1307 359.441 60.96C359.1 60.2773 358.588 60.704 357.905 62.24L357.649 62.752ZM356.113 66.592C355.772 66.9333 355.516 67.2747 355.345 67.616C352.273 73.76 349.628 80.7573 347.409 88.608C347.238 88.7787 347.238 89.0347 347.409 89.376C347.75 89.376 348.092 88.864 348.433 87.84C348.774 87.1573 349.542 85.1947 350.737 81.952C351.932 78.7093 352.87 76.2347 353.553 74.528C355.26 70.2613 356.625 67.5307 357.649 66.336C356.796 66.336 356.284 66.4213 356.113 66.592ZM350.993 59.424C350.481 59.5947 349.969 60.192 349.457 61.216C347.068 66.5067 345.532 69.8347 344.849 71.2C340.924 80.5867 338.193 87.7547 336.657 92.704C337.169 92.704 337.51 92.3627 337.681 91.68C338.534 89.8027 339.558 87.4133 340.753 84.512C342.801 79.392 346.214 72.0533 350.993 62.496C351.164 61.8133 351.42 60.96 351.761 59.936C351.761 59.936 351.59 59.7653 351.249 59.424C351.249 59.424 351.164 59.424 350.993 59.424ZM345.105 61.728C344.934 61.216 344.508 61.5573 343.825 62.752C343.313 63.776 342.716 65.1413 342.033 66.848C341.862 67.0187 341.606 67.7867 341.265 69.152C341.777 69.152 342.289 68.64 342.801 67.616C342.972 67.104 343.228 66.5067 343.569 65.824C344.081 64.9707 344.422 64.288 344.593 63.776C344.934 63.0933 345.105 62.4107 345.105 61.728ZM337.937 75.296C337.937 75.4667 337.937 76.064 337.937 77.088C339.644 73.6747 340.668 71.5413 341.009 70.688C341.009 70.5173 341.009 70.0907 341.009 69.408C340.326 70.2613 339.302 72.224 337.937 75.296ZM337.681 77.344C337.34 77.344 336.998 77.7707 336.657 78.624C337.169 78.4533 337.51 78.0267 337.681 77.344ZM336.657 78.88C336.657 78.88 336.486 79.0507 336.145 79.392C335.974 79.7333 335.718 79.9893 335.377 80.16C336.23 79.9893 336.657 79.5627 336.657 78.88ZM321.553 167.2C321.894 167.712 322.321 167.968 322.833 167.968C322.492 166.261 322.321 165.323 322.321 165.152C320.614 158.155 319.761 152.181 319.761 147.232C319.761 147.061 319.676 145.867 319.505 143.648C319.164 147.403 319.078 151.669 319.249 156.448C319.249 160.203 320.017 163.787 321.553 167.2ZM326.673 162.848C327.014 162.677 327.014 161.995 326.673 160.8C326.502 159.605 326.417 159.008 326.417 159.008C326.246 158.496 326.161 157.984 326.161 157.472C326.161 156.96 326.076 156.448 325.905 155.936C325.905 155.424 325.905 154.997 325.905 154.656C325.564 152.437 325.393 151.157 325.393 150.816C325.393 150.304 325.393 149.536 325.393 148.512C325.393 147.488 325.308 146.72 325.137 146.208C325.137 146.037 325.137 145.696 325.137 145.184C325.308 144.672 325.308 144.245 325.137 143.904C325.137 143.563 324.966 143.221 324.625 142.88C324.284 148.683 324.113 152.864 324.113 155.424C324.284 157.472 324.796 159.605 325.649 161.824C325.82 162.336 326.161 162.677 326.673 162.848ZM331.025 92.704C331.025 92.704 331.11 92.7893 331.281 92.96C331.11 92.7893 331.025 92.5333 331.025 92.192C331.025 92.3627 331.025 92.5333 331.025 92.704ZM331.281 91.68C331.622 91.5093 331.878 91.2533 332.049 90.912C332.39 90.5707 332.646 90.3147 332.817 90.144C332.305 90.656 331.793 91.168 331.281 91.68ZM333.841 160.544H334.097H333.841ZM333.841 160.544C334.012 159.861 334.012 157.643 333.841 153.888C333.841 153.888 333.67 153.717 333.329 153.376C332.988 153.717 332.817 153.888 332.817 153.888C332.817 156.277 333.158 158.496 333.841 160.544ZM334.609 84L334.353 84.256L334.609 84.512V84ZM334.865 98.848C334.865 98.6773 334.865 98.5067 334.865 98.336C334.865 98.336 334.865 98.4213 334.865 98.592V98.848ZM334.865 97.824C335.548 97.312 335.804 96.6293 335.633 95.776C335.462 95.9467 335.292 96.1173 335.121 96.288C335.121 96.4587 335.121 96.7147 335.121 97.056C335.121 97.3973 335.036 97.6533 334.865 97.824ZM335.889 95.264C336.572 94.9227 336.828 94.1547 336.657 92.96C336.316 93.3013 336.06 94.0693 335.889 95.264ZM426.279 71.712C426.279 72.0533 426.279 72.48 426.279 72.992C426.45 73.3333 426.45 73.6747 426.279 74.016C426.279 74.3573 426.108 74.528 425.767 74.528C423.89 74.1867 421.244 75.2107 417.831 77.6C401.106 88.864 392.146 100.043 390.951 111.136C390.61 113.696 390.951 116.171 391.975 118.56C392.999 120.779 394.706 122.912 397.095 124.96C399.484 127.008 401.447 128.544 402.983 129.568C404.519 130.592 406.738 132.043 409.639 133.92C415.1 137.163 418.77 141.344 420.647 146.464C422.695 151.413 422.268 156.789 419.367 162.592C416.466 167.541 412.114 171.637 406.311 174.88C400.679 178.123 394.876 179.744 388.903 179.744C383.1 179.915 377.639 177.952 372.519 173.856C367.399 169.76 364.498 164.896 363.815 159.264C363.644 157.899 363.986 156.875 364.839 156.192C365.01 156.021 365.266 156.107 365.607 156.448C368.85 160.032 371.836 161.995 374.567 162.336C381.906 163.019 388.476 161.056 394.279 156.448C397.18 154.229 399.058 151.669 399.911 148.768C400.764 145.696 400.338 142.624 398.631 139.552C396.754 136.48 393.084 133.152 387.623 129.568C382.332 125.813 378.919 123.253 377.383 121.888C370.556 115.232 367.826 107.04 369.191 97.312C370.215 89.8027 373.628 82.8053 379.431 76.32C385.234 69.664 391.89 64.2027 399.399 59.936C404.348 57.2053 409.468 57.2053 414.759 59.936C420.05 62.496 423.89 66.4213 426.279 71.712ZM393.767 160.032C393.084 160.544 392.828 161.056 392.999 161.568C395.559 160.544 397.607 159.008 399.143 156.96C399.655 156.277 399.826 155.68 399.655 155.168C398.972 155.68 397.863 156.533 396.327 157.728C394.962 158.923 394.108 159.691 393.767 160.032ZM391.975 161.568C391.975 161.568 391.975 161.653 391.975 161.824C392.146 161.995 392.316 162.08 392.487 162.08C392.487 161.909 392.658 161.739 392.999 161.568C392.658 161.397 392.487 161.312 392.487 161.312C392.316 161.312 392.146 161.397 391.975 161.568ZM404.775 171.04C405.116 170.869 405.287 170.613 405.287 170.272C404.946 170.101 404.604 170.187 404.263 170.528C404.263 170.528 404.178 170.699 404.007 171.04C404.519 171.04 404.775 171.04 404.775 171.04ZM414.759 159.52C411.346 163.616 408.359 166.773 405.799 168.992C405.628 169.163 405.458 169.589 405.287 170.272C405.628 170.272 405.884 170.272 406.055 170.272C410.151 168.053 413.052 164.811 414.759 160.544C414.759 160.544 414.759 160.203 414.759 159.52ZM397.351 168.224C401.959 167.371 405.116 164.725 406.823 160.288C405.799 161.141 404.178 162.507 401.959 164.384C399.911 166.091 398.375 167.371 397.351 168.224ZM401.959 85.536C401.447 85.7067 401.106 85.9627 400.935 86.304C401.447 85.9627 401.788 85.7067 401.959 85.536ZM398.887 73.76C398.546 74.1013 398.29 74.4427 398.119 74.784C398.631 74.6133 398.887 74.272 398.887 73.76ZM392.231 71.2C390.354 72.3947 389.415 73.248 389.415 73.76C390.439 73.248 391.378 72.3947 392.231 71.2ZM376.359 93.472C379.772 86.816 383.868 80.7573 388.647 75.296C389.159 74.9547 389.33 74.528 389.159 74.016C385.404 76.576 381.564 81.0133 377.639 87.328C375.932 89.888 375.164 92.5333 375.335 95.264C376.018 94.0693 376.359 93.472 376.359 93.472ZM383.015 93.472C383.186 93.3013 383.271 93.216 383.271 93.216C389.244 85.1947 394.194 79.136 398.119 75.04C397.436 75.04 397.095 75.04 397.095 75.04C389.927 80.5013 385.148 86.1333 382.759 91.936C382.588 92.7893 382.674 93.3013 383.015 93.472ZM390.695 99.36C390.695 99.1893 390.695 99.104 390.695 99.104C390.866 98.9333 390.951 98.7627 390.951 98.592C390.61 98.7627 390.524 99.0187 390.695 99.36ZM391.207 98.336C391.89 98.1653 392.146 97.6533 391.975 96.8C391.463 96.9707 391.207 97.4827 391.207 98.336ZM391.975 96.8C392.316 96.8 392.914 96.288 393.767 95.264C395.815 92.8747 398.204 89.9733 400.935 86.56C400.423 86.3893 399.911 86.4747 399.399 86.816C396.498 89.2053 394.194 91.7653 392.487 94.496C391.975 95.52 391.804 96.288 391.975 96.8ZM418.343 71.2H418.599H418.343ZM687.279 4.12799C689.839 4.46932 691.375 5.40798 691.887 6.94398C692.57 8.47999 692.314 10.1013 691.119 11.808C687.194 18.464 681.732 31.0933 674.735 49.696C666.884 70.5173 660.484 93.3867 655.535 118.304C651.61 137.76 650.927 153.376 653.487 165.152C654.511 169.248 656.388 172.064 659.119 173.6C660.143 174.283 660.143 174.965 659.119 175.648C654.34 179.744 648.794 181.024 642.479 179.488C636.164 177.781 631.898 173.856 629.679 167.712C629.167 165.835 628.655 163.872 628.143 161.824C627.802 159.776 627.546 157.643 627.375 155.424C627.204 153.035 627.119 151.072 627.119 149.536C627.119 148 627.119 145.781 627.119 142.88C627.119 139.979 627.119 138.016 627.119 136.992C627.119 134.944 626.948 133.92 626.607 133.92C626.436 133.92 625.754 135.029 624.559 137.248C616.708 153.291 608.943 164.981 601.263 172.32C596.996 176.245 591.962 178.891 586.159 180.256C580.356 181.792 574.81 181.451 569.519 179.232C564.228 176.843 560.388 172.747 557.999 166.944C556.292 162.677 555.012 158.24 554.159 153.632C553.476 148.853 553.391 143.904 553.903 138.784C554.586 133.493 555.268 128.885 555.951 124.96C556.634 120.864 557.999 115.829 560.047 109.856C562.095 103.712 563.631 99.1893 564.655 96.288C565.85 93.216 567.727 88.4373 570.287 81.952C573.018 75.4667 574.81 71.2853 575.663 69.408C580.612 56.9493 584.111 47.136 586.159 39.968C586.159 39.7973 586.33 39.2 586.671 38.176C587.012 36.9813 587.268 36.0427 587.439 35.36C587.61 34.5067 587.866 33.3973 588.207 32.032C588.719 30.496 588.975 29.3013 588.975 28.448C589.146 27.424 589.231 26.2293 589.231 24.864C589.402 23.328 589.316 22.304 588.975 21.792C588.804 21.1093 588.463 20.3413 587.951 19.488C587.61 18.6347 586.927 18.2933 585.903 18.464C585.05 18.464 583.94 18.464 582.575 18.464C577.796 20 571.908 24.096 564.911 30.752C555.012 40.3093 546.394 52.0853 539.055 66.08C531.887 79.904 527.108 93.728 524.719 107.552C521.647 124.619 523.183 134.944 529.327 138.528C530.351 139.04 530.863 138.528 530.863 136.992C530.863 136.821 530.778 136.565 530.607 136.224C530.607 135.712 530.607 135.371 530.607 135.2C530.607 132.128 531.46 129.653 533.167 127.776C535.215 125.216 537.775 124.192 540.847 124.704C543.919 125.045 546.138 126.752 547.503 129.824C548.868 132.555 549.039 135.456 548.015 138.528C546.991 141.6 545.028 143.819 542.127 145.184C536.666 147.232 531.29 148 525.999 147.488C520.879 146.976 516.186 145.269 511.919 142.368C506.97 139.125 503.556 134.005 501.679 127.008C499.802 120.011 499.119 113.269 499.631 106.784C500.314 100.299 501.508 93.984 503.215 87.84C505.434 80.5013 508.164 73.1627 511.407 65.824C514.65 58.3147 518.746 50.72 523.695 43.04C528.815 35.36 534.276 28.6187 540.079 22.816C545.882 17.0133 552.538 12.4053 560.047 8.99199C567.727 5.40799 575.578 3.78666 583.599 4.12799C592.303 4.63999 598.703 8.56533 602.799 15.904C607.066 23.2427 608.431 31.3493 606.895 40.224C605.53 49.44 602.458 60.7893 597.679 74.272C596.826 76.6613 595.631 79.7333 594.095 83.488C592.73 87.072 591.535 90.3147 590.511 93.216C589.487 95.9467 588.292 99.2747 586.927 103.2C585.562 106.955 584.452 110.368 583.599 113.44C582.746 116.512 581.892 119.925 581.039 123.68C580.186 127.435 579.503 130.933 578.991 134.176C578.65 137.419 578.479 140.832 578.479 144.416C578.479 147.829 578.735 151.072 579.247 154.144C579.759 157.557 580.698 160.544 582.063 163.104C583.599 165.493 585.562 167.029 587.951 167.712C590.34 168.224 592.986 166.859 595.887 163.616C601.007 157.984 605.7 151.755 609.967 144.928C614.234 137.931 618.159 130.08 621.743 121.376C625.327 112.501 628.058 105.248 629.935 99.616C631.983 93.8133 634.628 85.7067 637.871 75.296C638.724 73.0773 639.322 71.3707 639.663 70.176C646.66 48.3307 654.084 28.3627 661.935 10.272C663.642 6.34665 665.775 4.21332 668.335 3.87199C671.919 3.18933 678.234 3.27466 687.279 4.12799ZM535.215 129.824C534.874 130.165 534.618 130.592 534.447 131.104C534.276 131.445 534.191 131.787 534.191 132.128C534.191 132.299 534.276 132.384 534.447 132.384C534.788 132.384 535.556 132.043 536.751 131.36C538.116 130.336 538.97 129.397 539.311 128.544C539.311 128.032 538.97 127.776 538.287 127.776C537.434 127.776 536.41 128.459 535.215 129.824ZM553.903 24.096C554.244 24.096 554.415 23.84 554.415 23.328C554.244 23.4987 554.074 23.6693 553.903 23.84C553.903 24.0107 553.903 24.096 553.903 24.096ZM553.647 24.352C553.306 24.5227 553.05 24.7787 552.879 25.12C553.391 25.12 553.647 24.864 553.647 24.352ZM552.623 25.376C552.282 25.5467 552.196 25.888 552.367 26.4C552.367 26.2293 552.367 26.0587 552.367 25.888C552.538 25.5467 552.623 25.376 552.623 25.376ZM552.367 26.4C551.514 26.2293 551.172 26.4853 551.343 27.168C551.684 26.8267 552.026 26.5707 552.367 26.4ZM551.087 27.424C549.551 27.424 548.442 28.448 547.759 30.496C548.1 30.3253 548.442 30.0693 548.783 29.728C549.295 29.3867 549.722 28.96 550.063 28.448C550.575 27.936 550.916 27.5947 551.087 27.424ZM545.711 32.544C543.834 33.7387 542.468 35.36 541.615 37.408C543.322 36.0427 544.687 34.4213 545.711 32.544ZM541.615 28.96C541.786 28.96 541.871 28.96 541.871 28.96C541.871 28.96 541.786 28.96 541.615 28.96ZM542.383 27.424C542.554 27.424 542.81 27.3387 543.151 27.168C542.81 27.168 542.554 27.2533 542.383 27.424ZM543.407 26.912C543.578 26.7413 543.663 26.5707 543.663 26.4C543.663 26.5707 543.578 26.7413 543.407 26.912ZM546.735 31.52C546.394 31.52 546.138 31.6053 545.967 31.776C545.796 31.776 545.711 31.9467 545.711 32.288C546.394 32.288 546.735 32.032 546.735 31.52ZM547.503 30.496C546.991 30.496 546.735 30.752 546.735 31.264C547.247 31.264 547.503 31.008 547.503 30.496ZM546.991 23.84C547.162 23.84 547.247 23.84 547.247 23.84V23.584C547.247 23.584 547.162 23.6693 546.991 23.84ZM544.687 25.376C544.516 25.5467 544.346 25.632 544.175 25.632C544.346 25.632 544.431 25.632 544.431 25.632C544.602 25.4613 544.687 25.376 544.687 25.376ZM540.335 28.96H540.079L540.335 29.216V28.96ZM540.079 30.496L539.823 30.752H540.079V30.496ZM536.751 35.104C536.751 35.104 536.666 35.1893 536.495 35.36C536.666 35.36 536.751 35.2747 536.751 35.104ZM531.375 42.272V42.016L531.119 42.272H531.375ZM531.375 42.016C531.375 41.8453 531.375 41.76 531.375 41.76C531.375 41.9307 531.375 42.016 531.375 42.016ZM526.767 58.144C526.767 58.3147 526.767 58.4853 526.767 58.656C526.938 58.4853 526.938 58.3147 526.767 58.144ZM525.231 61.728C525.231 61.728 525.231 61.8133 525.231 61.984C525.231 61.8133 525.231 61.728 525.231 61.728ZM524.207 63.52H524.463H524.207ZM523.439 52H523.183H523.439ZM507.311 93.216C506.799 94.4107 506.799 95.4347 507.311 96.288V93.216ZM506.031 98.08C506.031 99.4453 506.202 100.725 506.543 101.92C506.714 99.1893 506.97 97.4827 507.311 96.8C506.628 97.1413 506.202 97.568 506.031 98.08ZM507.055 131.36C507.055 131.36 507.396 131.531 508.079 131.872C506.372 125.387 505.775 115.829 506.287 103.2C506.287 103.2 506.372 102.773 506.543 101.92C505.86 102.261 505.434 102.773 505.263 103.456C504.068 110.283 504.068 117.792 505.263 125.984C505.434 127.861 506.031 129.653 507.055 131.36ZM508.079 132.896L508.335 132.64C508.335 132.64 508.25 132.384 508.079 131.872C507.738 132.213 507.738 132.555 508.079 132.896ZM508.335 89.888C508.335 89.888 508.335 89.8027 508.335 89.632C508.335 89.4613 508.335 89.376 508.335 89.376C508.335 89.2053 508.335 89.12 508.335 89.12C508.164 89.2907 508.079 89.376 508.079 89.376C508.079 89.376 508.164 89.5467 508.335 89.888ZM513.711 95.008C513.711 94.8373 513.711 94.752 513.711 94.752C513.882 94.5813 513.882 94.4107 513.711 94.24C513.711 94.0693 513.54 94.0693 513.199 94.24C513.199 94.24 513.199 94.3253 513.199 94.496C513.199 94.6667 513.199 94.8373 513.199 95.008C513.199 95.1787 513.284 95.6907 513.455 96.544C512.772 96.8853 512.431 97.312 512.431 97.824C510.042 107.381 509.444 116.171 510.639 124.192C510.98 124.875 511.322 125.301 511.663 125.472C511.834 124.96 511.919 124.619 511.919 124.448C511.578 119.84 511.663 113.184 512.175 104.48C512.516 101.067 512.943 98.4213 513.455 96.544C513.626 95.52 513.711 95.008 513.711 95.008ZM514.479 90.912C514.479 90.7413 514.479 90.5707 514.479 90.4C514.308 90.5707 514.223 90.656 514.223 90.656C514.223 90.656 514.308 90.7413 514.479 90.912ZM520.111 119.84C520.111 119.499 520.111 118.475 520.111 116.768C520.111 114.891 520.282 113.44 520.623 112.416C519.94 112.757 519.599 112.928 519.599 112.928C518.746 117.877 518.831 121.717 519.855 124.448C519.855 123.765 519.94 122.229 520.111 119.84ZM520.623 112.16C520.623 111.989 520.623 111.648 520.623 111.136C520.794 110.624 520.794 110.112 520.623 109.6C520.623 109.088 520.538 108.576 520.367 108.064C520.367 108.405 520.367 109.088 520.367 110.112C520.367 111.136 520.452 111.819 520.623 112.16ZM523.439 65.312V65.056V65.312ZM529.327 55.84C529.839 55.328 530.18 55.072 530.351 55.072C529.498 54.9013 528.9 55.072 528.559 55.584C528.559 55.584 528.303 55.84 527.791 56.352C528.303 56.5227 528.815 56.352 529.327 55.84ZM530.351 54.816C530.351 54.816 530.351 54.3893 530.351 53.536C530.522 52.6827 530.522 52.256 530.351 52.256C530.18 53.4507 530.18 54.304 530.351 54.816ZM530.607 52C531.46 51.8293 532.058 51.1467 532.399 49.952C532.228 50.1227 531.972 50.3787 531.631 50.72C531.46 50.8907 531.29 51.1467 531.119 51.488C530.948 51.6587 530.778 51.8293 530.607 52ZM532.655 49.696C533.508 49.184 534.02 48.416 534.191 47.392C533.167 47.7333 532.655 48.5013 532.655 49.696ZM534.447 47.136C535.3 46.624 535.812 45.856 535.983 44.832C534.788 45.1733 534.276 45.9413 534.447 47.136ZM536.239 44.576C537.434 43.8933 537.946 43.04 537.775 42.016C536.58 42.8693 536.068 43.7227 536.239 44.576ZM538.287 41.76C539.994 40.224 541.018 38.8587 541.359 37.664C540.335 38.0053 539.14 39.3707 537.775 41.76C538.116 41.9307 538.287 41.9307 538.287 41.76ZM540.335 56.352H540.591C540.591 56.1813 540.591 56.096 540.591 56.096C540.591 55.9253 540.591 55.7547 540.591 55.584C540.591 55.7547 540.591 55.9253 540.591 56.096L540.335 56.352ZM542.383 54.048C542.383 53.8773 542.468 53.792 542.639 53.792C542.81 53.792 542.895 53.792 542.895 53.792C542.895 53.6213 542.895 53.28 542.895 52.768C542.895 52.0853 542.81 51.5733 542.639 51.232C542.81 52.4267 542.895 53.28 542.895 53.792C542.554 53.792 542.383 53.8773 542.383 54.048ZM542.639 50.976C543.151 50.976 543.492 50.976 543.663 50.976C544.004 50.8053 544.175 50.6347 544.175 50.464C544.346 50.1227 544.516 49.6107 544.687 48.928C543.322 50.2933 542.639 50.976 542.639 50.976ZM544.943 48.672C545.796 48.3307 546.308 47.648 546.479 46.624C545.967 46.7947 545.455 47.4773 544.943 48.672ZM546.735 46.112C547.588 45.7707 548.015 45.5147 548.015 45.344C548.186 45.0027 548.186 44.4053 548.015 43.552C547.844 43.8933 547.588 44.32 547.247 44.832C546.906 45.344 546.735 45.7707 546.735 46.112ZM549.039 43.552C550.746 41.6747 551.684 40.3093 551.855 39.456C551.514 39.456 551.002 39.7973 550.319 40.48C549.636 41.3333 548.868 42.272 548.015 43.296C548.698 43.4667 549.039 43.552 549.039 43.552ZM555.695 33.568C556.548 33.7387 556.975 33.4827 556.975 32.8C556.634 33.4827 556.207 33.7387 555.695 33.568C555.695 33.9093 555.61 34.2507 555.439 34.592C555.268 34.7627 555.012 35.0187 554.671 35.36C554.5 35.5307 554.33 35.7013 554.159 35.872C553.988 36.2133 553.732 36.5547 553.391 36.896C553.05 37.2373 552.708 37.664 552.367 38.176C552.196 38.5173 552.111 38.8587 552.111 39.2C552.964 38.8587 554.244 37.4933 555.951 35.104C555.951 34.9333 555.866 34.4213 555.695 33.568ZM557.231 32.8C557.572 32.8 557.828 32.6293 557.999 32.288C557.658 32.4587 557.402 32.6293 557.231 32.8ZM558.255 32.288C558.767 32.1173 558.938 31.776 558.767 31.264C558.426 31.6053 558.255 31.9467 558.255 32.288ZM559.023 31.264C559.535 31.264 559.791 31.008 559.791 30.496C559.45 30.8373 559.194 31.0933 559.023 31.264ZM560.047 30.24C560.559 30.24 560.73 29.984 560.559 29.472C560.218 29.984 560.047 30.24 560.047 30.24ZM560.559 29.216C561.071 29.216 561.412 29.0453 561.583 28.704C561.242 28.8747 560.9 29.0453 560.559 29.216ZM563.375 27.936C564.57 27.0827 565.252 26.656 565.423 26.656C564.74 26.3147 564.058 26.4 563.375 26.912C562.863 27.424 562.266 27.936 561.583 28.448C562.095 28.6187 562.692 28.448 563.375 27.936ZM566.703 25.376C566.703 25.376 566.703 24.9493 566.703 24.096C566.703 23.9253 566.703 23.84 566.703 23.84C566.703 23.84 566.703 23.9253 566.703 24.096C566.703 24.608 566.703 25.0347 566.703 25.376ZM578.223 88.096C579.418 87.584 580.015 86.3893 580.015 84.512C579.844 84.512 579.588 84.9387 579.247 85.792C579.076 85.9627 578.82 86.3893 578.479 87.072C578.308 87.584 578.223 87.9253 578.223 88.096ZM577.455 91.68C577.114 91.8507 576.943 92.3627 576.943 93.216C577.114 92.5333 577.284 92.0213 577.455 91.68ZM577.711 76.32C579.076 74.9547 579.588 73.504 579.247 71.968C578.052 73.8453 577.54 75.296 577.711 76.32ZM581.295 83.232C583.343 78.7947 584.367 76.4907 584.367 76.32C587.78 68.2987 589.999 62.0693 591.023 57.632C591.535 55.7547 591.706 54.3893 591.535 53.536C591.364 53.8773 591.279 54.1333 591.279 54.304C587.012 65.2267 583.428 74.528 580.527 82.208C580.527 82.3787 580.442 83.0613 580.271 84.256C580.612 84.256 580.954 83.9147 581.295 83.232ZM587.695 89.888C587.866 89.5467 587.951 89.376 587.951 89.376C587.951 89.2053 587.866 88.7787 587.695 88.096C587.695 88.9493 587.695 89.376 587.695 89.376C587.695 89.376 587.695 89.5467 587.695 89.888ZM587.695 88.096C589.231 87.7547 589.999 86.56 589.999 84.512C589.658 84.512 589.316 84.8533 588.975 85.536C588.292 87.072 587.866 87.9253 587.695 88.096ZM598.447 60.704C598.106 60.704 597.935 60.96 597.935 61.472C598.276 61.3013 598.447 61.1307 598.447 60.96C598.447 60.7893 598.447 60.704 598.447 60.704ZM597.935 61.728C597.594 61.8987 597.423 61.984 597.423 61.984C594.522 70.0053 592.132 76.7467 590.255 82.208C590.084 82.3787 589.999 83.0613 589.999 84.256C590.511 83.9147 590.767 83.6587 590.767 83.488C593.498 77.344 595.802 70.688 597.679 63.52C597.85 63.3493 597.935 62.752 597.935 61.728ZM592.303 52.768C591.962 52.768 591.791 52.9387 591.791 53.28C591.962 53.28 592.132 53.1947 592.303 53.024V52.768ZM591.535 36.64C590.34 39.2 589.828 40.992 589.999 42.016C591.023 40.6507 591.535 38.8587 591.535 36.64ZM588.719 44.064C586.5 50.5493 583.599 58.9973 580.015 69.408C579.844 69.7493 579.588 70.5173 579.247 71.712C579.759 71.8827 580.1 71.6267 580.271 70.944C584.026 62.9227 587.183 54.1333 589.743 44.576C589.914 44.4053 589.999 43.6373 589.999 42.272C589.658 42.272 589.231 42.8693 588.719 44.064ZM577.455 76.576C577.114 76.7467 576.858 77.088 576.687 77.6C576.516 78.112 576.346 78.624 576.175 79.136C576.004 79.648 575.748 79.9893 575.407 80.16C575.407 80.5013 575.407 80.7573 575.407 80.928C575.407 80.7573 575.407 80.5013 575.407 80.16C576.943 79.4773 577.626 78.2827 577.455 76.576ZM574.639 99.36H574.383V99.616L574.639 99.36ZM571.823 90.4V90.656H572.079L571.823 90.4ZM564.911 110.624L564.655 111.136H564.911V110.624ZM561.327 125.984C561.156 126.155 561.071 126.24 561.071 126.24L561.327 126.496C561.327 126.496 561.327 126.411 561.327 126.24C561.327 126.069 561.327 125.984 561.327 125.984ZM561.327 162.336C561.839 163.189 562.436 163.616 563.119 163.616C560.047 152.181 559.194 141.429 560.559 131.36C558.682 139.893 558.17 147.147 559.023 153.12C559.535 157.045 560.303 160.117 561.327 162.336ZM562.607 164.128C562.607 164.128 562.692 164.213 562.863 164.384C562.863 164.213 562.948 163.957 563.119 163.616C562.948 163.957 562.778 164.128 562.607 164.128ZM563.887 115.232C563.887 115.061 563.972 114.976 564.143 114.976C563.972 114.805 563.887 114.72 563.887 114.72C563.887 114.72 563.887 114.805 563.887 114.976C563.887 114.976 563.887 115.061 563.887 115.232ZM566.447 141.6C566.276 139.893 566.276 138.101 566.447 136.224C566.618 134.347 566.788 132.299 566.959 130.08C567.3 127.691 567.471 125.813 567.471 124.448C566.618 127.179 565.679 132.043 564.655 139.04C563.972 144.331 564.57 150.389 566.447 157.216C566.447 157.216 566.703 157.557 567.215 158.24C566.703 147.659 566.447 142.112 566.447 141.6ZM568.495 121.12C568.836 120.267 568.751 119.413 568.239 118.56C568.239 118.56 568.154 118.987 567.983 119.84C567.812 120.523 567.983 120.949 568.495 121.12ZM568.495 118.048C569.348 117.536 569.604 116.597 569.263 115.232C569.263 115.403 569.178 115.659 569.007 116C569.007 116.341 568.922 116.683 568.751 117.024C568.751 117.365 568.666 117.707 568.495 118.048ZM569.519 114.976C569.86 114.805 570.116 114.635 570.287 114.464C570.458 114.123 570.543 113.781 570.543 113.44C570.543 112.928 570.628 112.587 570.799 112.416C570.458 112.416 570.202 112.587 570.031 112.928C569.86 113.099 569.69 113.44 569.519 113.952C569.519 114.464 569.519 114.805 569.519 114.976ZM570.799 111.904C571.14 111.051 571.311 110.112 571.311 109.088C570.628 109.771 570.458 110.709 570.799 111.904ZM571.311 108.832C571.652 108.661 571.994 107.723 572.335 106.016C571.823 106.528 571.482 107.467 571.311 108.832ZM572.591 105.504C572.762 105.333 572.847 105.248 572.847 105.248C572.847 105.248 572.762 105.163 572.591 104.992C572.591 104.992 572.591 105.077 572.591 105.248C572.591 105.419 572.591 105.504 572.591 105.504ZM573.615 102.176L573.871 101.92H573.615V102.176ZM575.663 152.096C575.663 150.048 575.663 147.147 575.663 143.392C575.663 139.467 575.663 136.565 575.663 134.688C573.786 141.685 573.786 147.488 575.663 152.096ZM575.407 95.264C575.919 95.0933 576.346 94.6667 576.687 93.984C576.175 94.496 575.748 94.9227 575.407 95.264V95.776L575.663 96.032C575.663 96.032 575.663 95.9467 575.663 95.776C575.663 95.6053 575.578 95.4347 575.407 95.264ZM576.175 156.448C576.346 156.277 576.431 156.107 576.431 155.936C576.431 155.936 576.346 155.765 576.175 155.424C576.175 155.765 576.175 156.021 576.175 156.192C576.175 156.192 576.175 156.277 576.175 156.448ZM577.711 91.168C578.394 90.4853 578.479 89.5467 577.967 88.352C577.796 89.7173 577.711 90.656 577.711 91.168ZM643.503 106.528C646.916 88.608 652.463 67.7013 660.143 43.808C660.996 41.248 661.594 39.712 661.935 39.2C661.252 39.3707 660.826 39.6267 660.655 39.968C660.143 40.8213 659.802 41.5893 659.631 42.272C649.562 68.384 642.65 94.3253 638.895 120.096C637.53 129.653 636.932 138.357 637.103 146.208C637.103 149.28 637.53 151.84 638.383 153.888C638.383 153.376 638.383 152.352 638.383 150.816C638.554 138.528 640.26 123.765 643.503 106.528ZM661.935 38.944C662.106 37.92 662.362 37.152 662.703 36.64C661.85 37.152 661.594 37.92 661.935 38.944ZM650.927 123.68C652.804 111.051 656.474 94.9227 661.935 75.296C662.276 74.1013 663.386 69.8347 665.263 62.496C664.751 62.496 664.41 62.6667 664.239 63.008C663.556 64.8853 663.13 66.1653 662.959 66.848C656.815 86.1333 652.634 102.517 650.415 116C648.196 128.288 647.258 139.808 647.599 150.56C647.599 151.925 647.77 152.779 648.111 153.12C648.282 152.779 648.367 152.096 648.367 151.072C648.538 143.392 649.391 134.261 650.927 123.68ZM663.727 30.752V31.008V30.752ZM667.567 56.096C667.567 55.7547 667.652 55.4133 667.823 55.072C667.994 54.7307 668.079 54.4747 668.079 54.304C668.25 53.9627 668.164 53.536 667.823 53.024C666.116 56.608 665.263 59.68 665.263 62.24C665.604 62.0693 665.775 61.8133 665.775 61.472C665.946 61.1307 666.031 60.7893 666.031 60.448C666.202 59.936 666.372 59.5947 666.543 59.424C667.055 58.4 667.396 57.2907 667.567 56.096ZM666.543 24.864V24.608V24.864ZM668.335 7.71199C668.506 7.37066 668.506 7.11466 668.335 6.94398C668.164 6.60266 667.738 6.51732 667.055 6.68799C666.543 6.68799 666.116 6.94399 665.775 7.45599C665.092 8.65066 664.666 9.41866 664.495 9.75999C659.887 20.8533 657.156 27.424 656.303 29.472C649.647 46.368 644.1 63.6907 639.663 81.44C635.226 99.1893 632.324 116.171 630.959 132.384C630.106 141.6 630.02 149.365 630.703 155.68C631.044 157.899 631.471 159.435 631.983 160.288C632.324 159.947 632.495 159.093 632.495 157.728C632.495 157.045 632.41 155.253 632.239 152.352C632.239 149.28 632.239 146.976 632.239 145.44C632.41 132.981 634.116 118.645 637.359 102.432C641.284 82.1227 647.258 60.6187 655.279 37.92C659.546 25.8027 663.642 16.2453 667.567 9.24799C667.908 8.56533 668.164 8.05333 668.335 7.71199ZM669.359 19.488C669.359 19.3173 669.274 19.0613 669.103 18.72C669.103 19.0613 669.103 19.3173 669.103 19.488C669.103 19.488 669.188 19.488 669.359 19.488ZM669.359 48.672C669.188 48.672 669.103 48.672 669.103 48.672H669.359ZM669.615 48.16C669.786 48.16 669.956 48.0747 670.127 47.904H669.871C669.871 47.904 669.786 47.9893 669.615 48.16ZM677.295 6.94398C677.466 6.43199 677.21 6.09066 676.527 5.92C675.332 5.57866 674.564 5.91999 674.223 6.94398C673.882 8.13866 673.37 9.41866 672.687 10.784C672.175 11.9787 671.578 13.344 670.895 14.88C670.212 16.416 669.615 17.6107 669.103 18.464C669.786 18.8053 670.468 18.464 671.151 17.44C672.516 15.0507 674.394 11.8933 676.783 7.96799C676.954 7.62666 677.124 7.28532 677.295 6.94398ZM780.927 1.312C783.316 3.01866 784.767 5.23733 785.279 7.96799C785.962 10.528 785.706 13.1733 784.511 15.904C782.463 20.512 778.794 23.4987 773.503 24.864C769.236 25.888 763.604 26.4853 756.607 26.656C754.9 26.8267 754.132 27.68 754.303 29.216C754.474 30.24 754.218 31.4347 753.535 32.8C747.391 46.7947 740.394 67.4453 732.543 94.752C725.716 118.133 720.426 139.979 716.671 160.288C716.671 160.288 716.671 160.544 716.671 161.056C722.474 161.568 728.191 161.312 733.823 160.288C735.359 159.947 737.066 159.008 738.943 157.472C739.796 156.619 740.735 157.045 741.759 158.752C742.783 160.459 743.466 161.995 743.807 163.36C744.49 167.115 743.636 170.272 741.247 172.832C739.711 174.197 738.004 175.392 736.127 176.416C734.25 177.269 732.543 177.952 731.007 178.464C729.642 178.976 727.594 179.403 724.863 179.744C722.132 179.915 720.255 180 719.231 180C718.207 180 715.988 180 712.575 180C709.332 180 707.455 180 706.943 180C704.724 180 700.714 179.915 694.911 179.744C689.108 179.403 684.671 179.232 681.599 179.232C673.066 179.403 667.348 180.341 664.447 182.048C663.252 182.901 662.484 182.645 662.143 181.28C660.778 175.989 662.058 171.296 665.983 167.2C670.25 162.763 678.1 160.544 689.535 160.544C692.607 140.747 697.642 118.219 704.639 92.96C710.442 71.968 717.61 49.8667 726.143 26.656C720.511 26.3147 715.647 26.8267 711.551 28.192C707.967 29.216 704.81 30.9227 702.079 33.312C699.348 35.7013 697.898 38.5173 697.727 41.76C698.239 41.76 699.178 41.4187 700.543 40.736C702.591 39.712 704.639 39.6267 706.687 40.48C708.735 41.1627 710.271 42.528 711.295 44.576C712.148 46.4533 712.234 48.416 711.551 50.464C710.868 52.512 709.503 54.048 707.455 55.072C705.407 56.096 703.274 56.2667 701.055 55.584C699.007 54.9013 697.471 53.6213 696.447 51.744C694.911 48.8427 693.972 46.0267 693.631 43.296C692.436 34.7627 694.314 27.2533 699.263 20.768C704.383 14.2827 711.295 10.016 719.999 7.96799C723.071 7.28532 726.57 6.77332 730.495 6.43199C734.591 6.09066 737.919 5.92 740.479 5.92C743.21 5.92 746.964 6.00533 751.743 6.17599C756.692 6.34666 760.191 6.43199 762.239 6.43199C772.138 6.43199 778.367 4.72533 780.927 1.312ZM702.335 42.528C701.482 42.528 700.714 42.8693 700.031 43.552C699.348 44.064 698.922 44.6613 698.751 45.344C698.751 45.5147 698.922 45.6 699.263 45.6C699.946 45.6 701.055 45.088 702.591 44.064C702.591 43.8933 702.676 43.6373 702.847 43.296C702.847 42.9547 702.847 42.784 702.847 42.784C702.506 42.4427 702.335 42.3573 702.335 42.528ZM755.583 10.272H755.839H755.583ZM751.231 10.016C750.548 10.016 749.61 10.016 748.415 10.016C747.391 10.016 746.623 10.016 746.111 10.016C749.183 10.1867 750.89 10.1867 751.231 10.016ZM711.039 15.392C716.842 13.344 722.474 11.9787 727.935 11.296C728.618 11.296 729.215 10.8693 729.727 10.016C731.604 10.528 735.615 10.6133 741.759 10.272C740.564 10.1013 736.554 10.016 729.727 10.016C727.508 10.3573 726.314 10.528 726.143 10.528C722.218 10.6987 718.378 11.4667 714.623 12.832C714.282 13.0027 712.148 13.9413 708.223 15.648C709.247 15.8187 710.186 15.7333 711.039 15.392ZM719.231 24.096C717.354 23.9253 716.074 23.9253 715.391 24.096C714.708 24.096 713.514 24.608 711.807 25.632C714.026 25.2907 716.5 24.7787 719.231 24.096ZM719.231 24.096C722.303 23.7547 724.522 23.584 725.887 23.584C725.204 23.2427 724.18 23.072 722.815 23.072C722.644 23.072 722.388 23.1573 722.047 23.328C721.706 23.328 721.364 23.328 721.023 23.328C720.511 23.328 719.914 23.584 719.231 24.096ZM693.375 158.24C693.375 158.411 693.375 158.581 693.375 158.752C693.375 159.264 693.631 159.605 694.143 159.776C694.655 159.947 694.996 159.776 695.167 159.264C695.338 158.24 695.508 157.131 695.679 155.936C696.02 154.571 696.618 151.499 697.471 146.72C698.495 141.771 699.263 138.016 699.775 135.456C702.676 120.096 706.602 103.627 711.551 86.048C716.33 68.8107 720.17 56.0107 723.071 47.648C726.484 38.0907 728.703 32.1173 729.727 29.728C730.068 29.0453 729.983 28.6187 729.471 28.448C728.788 28.1067 728.276 28.2773 727.935 28.96C727.423 29.8133 727.082 30.6667 726.911 31.52C722.644 43.4667 720.17 50.3787 719.487 52.256C715.903 63.008 712.831 72.992 710.271 82.208C706.175 96.7147 703.359 107.637 701.823 114.976C700.287 121.803 698.324 131.36 695.935 143.648C695.764 144.16 694.911 149.024 693.375 158.24ZM726.399 58.656C726.399 58.4853 726.399 58.4 726.399 58.4C726.399 58.4 726.399 58.656 726.399 59.168C726.399 59.168 726.399 59.424 726.399 59.936C725.716 60.2773 725.204 60.7893 724.863 61.472C725.204 61.472 725.46 61.216 725.631 60.704C725.972 60.192 726.228 59.936 726.399 59.936C726.399 59.424 726.399 59.168 726.399 59.168C726.399 58.9973 726.399 58.912 726.399 58.912C726.399 58.7413 726.399 58.656 726.399 58.656ZM724.607 64.8C724.948 63.264 725.034 62.24 724.863 61.728C724.351 62.752 724.266 63.776 724.607 64.8ZM724.607 65.056C723.754 65.2267 723.156 66.08 722.815 67.616C718.719 80.7573 716.074 89.376 714.879 93.472C709.418 112.757 704.724 133.408 700.799 155.424C700.628 156.448 700.458 157.557 700.287 158.752C700.287 159.605 700.543 160.032 701.055 160.032C701.738 160.032 702.164 159.691 702.335 159.008C702.506 158.325 702.676 157.472 702.847 156.448C705.407 141.771 708.394 127.179 711.807 112.672C716.415 93.8987 720.682 78.0267 724.607 65.056ZM695.423 163.872H691.071C691.071 164.043 691.071 164.128 691.071 164.128C693.631 164.128 695.082 164.128 695.423 164.128V163.872ZM685.951 164.384C682.367 164.213 679.636 164.384 677.759 164.896C677.588 164.896 674.346 165.749 668.031 167.456C669.055 167.968 670.506 167.968 672.383 167.456C677.503 166.091 681.77 165.323 685.183 165.152C685.866 165.152 686.122 164.896 685.951 164.384ZM669.055 177.952C669.567 178.123 669.823 178.208 669.823 178.208C669.823 178.208 670.079 178.123 670.591 177.952C670.25 177.781 669.994 177.696 669.823 177.696C669.823 177.696 669.567 177.781 669.055 177.952ZM672.639 177.696C673.663 177.525 674.26 177.269 674.431 176.928C673.578 176.587 672.554 176.587 671.359 176.928C671.359 176.928 671.188 177.269 670.847 177.952C671.871 177.781 672.468 177.696 672.639 177.696ZM678.015 176.416H685.183V176.16H678.015C678.015 176.331 678.015 176.416 678.015 176.416ZM707.199 169.504C710.1 169.504 711.807 169.419 712.319 169.248C711.466 169.077 709.844 168.992 707.455 168.992C702.676 168.821 700.031 168.736 699.519 168.736C695.252 168.224 689.108 168.224 681.087 168.736C677.844 168.907 674.943 169.845 672.383 171.552C675.455 171.04 677.332 170.699 678.015 170.528C681.428 170.187 683.391 169.931 683.903 169.76C685.439 169.589 687.402 169.504 689.791 169.504C691.668 169.333 693.546 169.248 695.423 169.248C696.276 169.248 698.154 169.333 701.055 169.504C701.567 169.504 702.25 169.504 703.103 169.504C703.956 169.504 704.724 169.504 705.407 169.504C706.09 169.504 706.687 169.504 707.199 169.504ZM709.247 164.896C709.759 164.896 710.527 164.896 711.551 164.896C712.575 164.896 713.343 164.896 713.855 164.896H709.247ZM721.535 120.096C721.706 119.072 722.388 116.085 723.583 111.136C724.948 106.016 725.887 102.176 726.399 99.616C726.57 98.9333 727.252 96.6293 728.447 92.704C729.642 88.7787 730.324 85.7067 730.495 83.488C729.812 84.1707 729.13 85.8773 728.447 88.608C726.399 95.6053 724.522 102.261 722.815 108.576C717.524 128.373 713.77 144.672 711.551 157.472C711.38 158.496 711.295 159.179 711.295 159.52C711.295 160.203 711.551 160.544 712.063 160.544C712.404 160.544 712.575 160.373 712.575 160.032C713.087 158.496 713.428 157.216 713.599 156.192C713.94 154.656 714.367 152.523 714.879 149.792C715.391 147.061 715.903 144.501 716.415 142.112C716.927 139.723 717.354 137.504 717.695 135.456C718.036 133.749 719.316 128.629 721.535 120.096ZM730.495 83.232C730.666 82.8907 730.836 82.72 731.007 82.72C731.007 82.5493 730.922 82.2933 730.751 81.952C730.58 82.2933 730.495 82.5493 730.495 82.72C730.495 82.72 730.495 82.8907 730.495 83.232ZM732.799 74.528V74.784V74.528ZM738.431 28.448C738.431 28.2773 738.431 28.1067 738.431 27.936C738.26 27.5947 738.09 27.424 737.919 27.424C737.748 27.2533 737.578 27.2533 737.407 27.424C736.724 28.1067 736.383 28.5333 736.383 28.704C736.042 29.5573 735.018 32.4587 733.311 37.408C734.847 35.7013 736.554 32.7147 738.431 28.448ZM753.279 15.904C753.45 15.904 754.644 15.8187 756.863 15.648C756.522 15.3067 756.095 15.136 755.583 15.136C746.367 14.9653 741.247 14.7947 740.223 14.624C739.882 14.624 739.284 14.624 738.431 14.624C730.922 14.7947 726.74 14.9653 725.887 15.136C720.767 15.4773 716.5 16.5867 713.087 18.464C713.94 18.464 715.306 18.2933 717.183 17.952C726.058 16.2453 733.482 15.4773 739.455 15.648C741.162 15.648 743.551 15.648 746.623 15.648C749.695 15.648 751.914 15.7333 753.279 15.904Z" fill="white"/>
</svg>
